<svg width="2500" height="1050" viewBox="0 0 114 48" fill="none" xmlns="http://www.w3.org/2000/svg">
<g clip-path="url(#clip0_26_2)">
<path fill-rule="evenodd" clip-rule="evenodd" d="M20.3985 28.5797L20.1507 28.3321C20.0891 28.3043 19.9012 28.5097 19.8149 28.4521C19.5504 28.2755 19.6865 28.7283 19.2895 28.7293C18.8925 28.7303 18.9738 27.2268 18.9017 27.226C18.7422 27.2243 18.1281 26.9562 18.2102 26.0381C18.2765 25.2976 18.5493 25.2622 18.9017 25.9486C19.0296 26.1976 19.3912 26.6795 19.7053 27.0195C20.0195 27.3595 20.4211 27.9086 20.5978 28.2397C20.8629 28.7365 20.438 28.4618 20.3985 28.5797ZM4.15958 31.7326L3.9669 31.7706C3.98174 31.7258 4.00124 31.703 4.02543 31.7012C4.04996 31.6993 4.09627 31.7105 4.15958 31.7326ZM24.3008 23.5037C24.5744 23.4828 25.1334 23.4199 25.2029 23.4911C25.6025 23.9011 24.8248 23.8037 23.4993 24.161C22.4656 24.4396 22.4503 24.9796 22.2786 24.4073C21.9681 23.3728 22.0202 23.0574 22.9757 23.4471C23.3284 23.5909 24.0273 23.5247 24.3008 23.5037ZM21.8003 27.6255C21.5579 26.9309 23.105 27.7897 23.7607 27.5769C24.0023 27.6601 24.1384 28.745 23.9257 28.7816C23.009 28.9392 22.4764 28.3819 22.0885 28.5396C21.6269 28.7271 21.4009 28.4561 21.7599 28.1456C21.8536 28.0645 21.8718 27.8304 21.8003 27.6255ZM21.2491 24.7797C21.4394 24.389 21.5434 24.3335 21.7523 24.5114C21.8972 24.6348 22.0211 24.8069 22.0277 24.894C22.0397 25.0508 21.3219 25.7821 21.1427 25.7958C20.9572 25.81 21.0147 25.2609 21.2491 24.7797ZM19.7064 23.6079C19.9354 23.5903 19.9412 24.3572 20.0103 24.428C20.1527 24.5742 19.8827 25.1183 19.6323 25.241C19.446 25.3323 19.0294 24.2039 19.1595 24.0217C19.2059 23.9566 19.129 23.0977 19.3313 23.2065C19.5336 23.3152 19.4773 23.6254 19.7064 23.6079ZM15.4639 22.6303C15.587 21.2558 16.0819 21.3409 16.9996 22.8943C17.5777 23.8728 17.7332 24.2835 17.4752 24.1506C17.1794 23.9982 16.0561 23.5234 15.7391 23.4169C15.4694 23.3261 15.4155 23.172 15.4639 22.6303ZM6.45152 24.037C6.89606 23.9682 7.54489 24.0306 7.90256 24.1764C8.52573 24.4305 8.55258 24.4795 8.63101 25.5045C8.69919 26.3955 8.66346 26.5613 8.41128 26.5231C8.2456 26.4981 8.09373 25.847 7.80701 25.4212C7.52028 24.9954 6.74791 24.7564 6.35744 24.5453L5.64751 24.1614L6.45152 24.037ZM6.00912 26.9538C6.36148 27.2715 6.55993 28.1119 6.76214 28.0964C7.20834 28.0622 8.47444 29.1194 8.1599 30.033C7.81465 31.0358 6.52132 30.1095 5.74837 29.5736C5.14419 29.1547 5.07934 29.0298 5.04949 28.2274C5.03136 27.7411 4.93695 27.1377 4.83964 26.8866C4.57423 26.2017 5.21576 26.2386 6.00912 26.9538ZM3.73667 20.1044C4.18267 20.3301 4.82393 20.5406 5.28006 21.1162C6.20168 22.2792 6.32735 22.6492 5.75606 22.5173C5.31654 22.4158 4.49082 21.2541 3.87621 21.9281C3.64469 22.1819 2.94704 21.9462 2.86425 21.8612C2.71451 21.7076 1.74044 19.8751 1.71386 19.5278C1.68711 19.1782 2.93619 19.6993 3.73667 20.1044ZM4.86482 31.0451C4.82435 30.5163 4.99675 30.334 5.29613 30.589C5.48719 30.7517 5.50619 30.8776 5.37385 31.1035C5.12867 31.5218 4.89928 31.4955 4.86482 31.0451ZM3.32655 29.2872C3.81181 28.787 4.17904 28.651 4.40867 28.8866C4.76575 29.253 4.33905 29.1595 3.81013 29.7219C3.16895 30.4038 3.22978 31.4717 3.04898 31.0277C2.76842 30.3388 2.8593 29.7689 3.32655 29.2872ZM1.60199 27.0966C2.03108 26.727 2.43311 26.4769 2.49538 26.5408C2.94927 27.0065 1.55208 27.8499 0.126315 29.8357L-0.981219 30.3821L-1.22007 31.1612C-1.74832 30.6539 -2.18959 30.0879 -2.20074 29.9034C-2.23538 29.3305 -0.940619 28.1812 -0.0168331 27.9649C0.448264 27.856 1.16929 27.4692 1.60199 27.0966Z" fill="#2D2626"/>
<path fill-rule="evenodd" clip-rule="evenodd" d="M16.2905 35.0448C16.8429 34.5003 17.1269 34.0492 17.2943 33.4505C17.3686 33.185 17.3984 32.858 17.3744 32.572C17.3535 32.3215 17.3363 31.6395 17.3363 31.0566V29.9964L17.008 29.9441C16.7888 29.9093 16.59 29.8066 16.4094 29.6351C16.0119 29.2572 15.8235 29.2407 15.325 29.5396L14.9033 29.7927L14.8629 31.0239C14.8283 32.081 14.7995 32.2986 14.6591 32.5625L14.4956 32.8699L14.3238 32.2932C14.0596 31.406 13.5659 31.0375 12.8063 31.1609C12.2301 31.2543 11.7234 31.8993 11.6391 32.6469C11.5937 33.0499 11.5065 33.0226 11.292 32.5375C11.1752 32.2736 11.1234 31.942 11.0883 31.2347L11.0414 30.2863L10.5917 30.5852C10.3443 30.7494 10.0598 31.0051 9.95928 31.1529C9.82269 31.354 9.63686 31.4781 9.22265 31.6454L8.6687 31.8689L8.71244 32.4559C8.78654 33.45 9.18542 34.2707 9.97145 35.0462C10.3826 35.4517 11.0378 35.8728 11.3965 35.9622C11.5971 36.0121 11.5973 36.013 11.6476 37.0616C11.6752 37.6388 11.6979 38.744 11.6979 39.5175V40.9238L11.2538 41.087C10.4136 41.3957 9.47574 42.3346 9.00448 43.3389L8.80515 43.7637L8.74256 46.7374C8.70814 48.3729 8.69007 50.302 8.7024 51.0241L8.72482 52.3372L8.99083 52.8006C9.37628 53.4721 9.76888 53.9864 10.2093 54.3968C10.6203 54.7798 11.2805 55.1564 11.5408 55.1564C11.694 55.1564 11.6979 55.1986 11.6979 56.8557V58.5549H11.8759C11.9738 58.5549 12.1823 58.6726 12.3393 58.8164C12.4963 58.9602 12.6248 59.0575 12.6248 59.0326C12.6248 59.0078 12.6665 59.0292 12.7174 59.0801C12.7684 59.1311 12.9206 59.1728 13.0556 59.1728C13.1906 59.1728 13.3415 59.2216 13.3909 59.2812C13.5242 59.4418 14.3096 59.8088 14.4002 59.7527C14.4502 59.7219 14.4785 58.8821 14.4785 57.4285V55.1526L14.6909 55.0741C15.6495 54.7198 16.5871 53.914 16.9455 53.1361C17.3112 52.3426 17.341 51.8613 17.2707 47.896C17.2077 44.341 17.2051 44.2992 17.0164 43.7981C16.6267 42.7631 15.7464 41.7327 14.8425 41.2536L14.4785 41.0606V38.5696C14.4785 36.5157 14.497 36.0785 14.584 36.0785C14.863 36.0785 15.8456 35.4833 16.2905 35.0448ZM14.6055 44.2851C14.7163 44.4975 14.7455 44.9098 14.7952 46.9691C14.8818 50.5596 14.8749 51.2085 14.7466 51.5648C14.6854 51.7347 14.6348 51.8824 14.6341 51.8931C14.6335 51.9037 14.5982 51.9124 14.5557 51.9124C14.5132 51.9124 14.4777 51.8168 14.4768 51.7C14.4721 51.1198 13.8223 50.3497 13.2568 50.2542C12.4597 50.1195 11.6979 50.9345 11.6979 51.9221C11.6979 52.0867 11.6649 52.2213 11.6246 52.2213C11.5843 52.2213 11.4539 52.0937 11.3349 51.9376L11.1186 51.6539V48.0178C11.1186 45.0907 11.1395 44.3321 11.2257 44.1276C11.3187 43.9073 11.5126 43.7251 11.6542 43.7251C11.6782 43.7251 11.6979 43.9695 11.6979 44.2682C11.6979 44.8972 11.8319 45.2767 12.1818 45.6382C12.6497 46.1216 13.352 46.1261 13.8952 45.6492C14.1875 45.3926 14.3934 44.8816 14.4137 44.3623C14.4208 44.1818 14.4374 44.034 14.4505 44.034C14.4637 44.034 14.5334 44.147 14.6055 44.2851Z" fill="#2D2626"/>
<path fill-rule="evenodd" clip-rule="evenodd" d="M15.5112 8.9589C16.6971 8.39977 17.7578 7.28172 18.0229 6.31141C18.0626 6.16623 18.0778 4.12669 18.0567 1.77913C18.0241 -1.85 17.9964 -2.56014 17.8716 -2.96336C17.4232 -4.41204 16.1446 -5.88544 15.0183 -6.25136L14.5618 -6.39967L14.508 -6.98808C14.4784 -7.31172 14.4745 -8.14649 14.4993 -8.84349C14.5505 -10.2797 14.5411 -10.3088 13.8559 -10.8494L13.4554 -11.165L12.7027 -10.7954L12.2944 -11.1693C11.6899 -11.7226 11.6448 -11.7585 11.5555 -11.7585C11.5084 -11.7585 11.4636 -10.6548 11.45 -9.15966C11.4298 -6.95316 11.4059 -6.55016 11.2919 -6.4921C11.218 -6.45451 10.9187 -6.3145 10.6269 -6.18093C10.0107 -5.89903 9.18243 -5.19752 8.7866 -4.62235C8.501 -4.20731 8.15075 -3.2572 8.16377 -2.93273C8.11375 -2.67574 8.11375 -2.44037 8.11375 -2.44037C8.11375 -2.44037 8.07188 -0.684184 8.05892 1.56356C8.03987 4.86842 8.02106 5.61271 8.26823 6.2634C8.35686 6.49671 8.47971 6.71794 8.64897 7.04089C9.01684 7.74278 10.0317 8.6671 10.7781 8.98005L11.3815 9.23307V12.3181C11.3815 15.0284 11.3648 15.403 11.2445 15.403C11.1692 15.403 10.8568 15.5246 10.5502 15.6732C9.7287 16.0715 8.89683 16.9242 8.413 17.864C8.03805 18.5923 8.02264 18.654 7.9906 19.5551C7.96731 20.2098 8.04 20.0863 8.1106 20.0863C8.16605 20.0863 8.3746 20.3734 8.63801 20.2302L9.11697 19.9701L9.48496 20.3138C9.82811 20.6343 9.97225 20.2417 10.4267 20.2302L10.8277 20.6328L10.8601 19.8502C10.8904 19.1177 11.0981 18.421 11.2863 18.421C11.3212 18.421 11.396 18.6601 11.4525 18.9524C11.5668 19.544 11.8244 19.8755 12.3857 20.1534C12.9897 20.4524 13.6505 20.3149 14.1044 19.7956C14.3881 19.4712 14.5029 19.2213 14.5971 18.7228L14.6623 18.3779L14.8689 18.7606C15.0314 19.062 15.0808 19.3096 15.1007 19.9247C15.1146 20.3544 15.1301 20.7305 15.135 20.7605C15.1457 20.8249 15.4756 20.4203 15.7185 20.4203C15.8114 20.4203 16.2257 20.2026 16.4595 20.0535L17.1282 20.4658L17.4697 20.6505C17.9773 20.9252 18.0109 20.9023 18.0109 20.2824C18.0109 19.4512 17.7812 18.4498 17.4356 17.7736C16.9042 16.7342 15.6412 15.5807 14.8726 15.4327L14.5987 15.38L14.6112 12.43C14.6181 10.8074 14.6501 9.44441 14.6823 9.40098C14.7146 9.35753 15.0875 9.15857 15.5112 8.9589ZM15.0033 -3.00237C14.9307 -3.14695 14.7937 -3.36217 14.6988 -3.48073L14.5263 -3.6963L14.5355 -2.99418C14.5466 -2.14651 14.3929 -1.83322 13.7899 -1.47437C13.213 -1.1311 12.5991 -1.11368 12.1704 -1.42841C11.724 -1.75607 11.4372 -2.36742 11.4402 -2.98492C11.4415 -3.25763 11.4299 -3.48073 11.4143 -3.48073C11.3236 -3.48073 11.0827 -2.86647 10.9801 -2.37348C10.886 -1.92122 10.8734 -1.07585 10.921 1.60668C10.9753 4.67222 10.9979 5.04498 11.1468 5.336C11.3204 5.67531 11.471 5.75895 11.471 5.51604C11.471 5.24411 11.9299 4.6202 12.2913 4.40052C12.8902 4.03664 13.4993 4.10497 14.0062 4.5929C14.2928 4.86871 14.3911 5.03467 14.5544 5.51817C14.5997 5.65223 14.6316 5.66047 14.7469 5.56841C15.1573 5.24052 15.2093 4.57732 15.1653 0.23115C15.1411 -2.16447 15.1097 -2.79051 15.0033 -3.00237Z" fill="#2D2626"/>
<path d="M31.2598 1.74474V4.36122H34.7246V6.03662H31.2598V9.95776H28.9142V0.0764722H35.4091L35.1667 1.74474H31.2598ZM44.9283 3.07793C44.9283 3.54847 44.8404 3.9596 44.6645 4.31131C44.4887 4.66303 44.251 4.96008 43.9516 5.20248C43.6522 5.44488 43.3171 5.63975 42.9463 5.78709L45.5343 9.95776H42.8893L40.7505 6.1792H40.0875V9.95776H37.749V0.0764722H40.8574C42.2025 0.0764722 43.2173 0.321247 43.9017 0.810796C44.5861 1.30035 44.9283 2.05606 44.9283 3.07793ZM42.5186 3.07793C42.5186 2.60264 42.3784 2.25806 42.098 2.04418C41.8223 1.82554 41.4112 1.71622 40.8646 1.71622H40.0875V4.5751H40.9573C41.4658 4.5751 41.8532 4.45627 42.1193 4.21863C42.3855 3.98098 42.5186 3.60075 42.5186 3.07793ZM50.1343 1.74474V4.11882H53.5564V5.75857H50.1343V8.28236H54.2622V9.95776H47.7959V0.0764722H54.2551L54.0198 1.74474H50.1343ZM59.6821 1.74474V4.11882H63.1042V5.75857H59.6821V8.28236H63.81V9.95776H57.3436V0.0764722H63.8028L63.5676 1.74474H59.6821ZM32.3506 28.9578L29.7483 21.0085C29.7816 21.2224 29.8173 21.4814 29.8553 21.7856C29.8981 22.0851 29.9385 22.4201 29.9765 22.7909C30.0145 23.1568 30.0454 23.5466 30.0692 23.9601C30.0929 24.3736 30.1048 24.7966 30.1048 25.2291V28.9578H28.1157V19.0765H31.0316L33.5554 26.9829C33.5031 26.6835 33.4485 26.327 33.3914 25.9135C33.3392 25.4953 33.294 25.0295 33.256 24.5162C33.218 24.0029 33.199 23.4515 33.199 22.8622V19.0765H35.188V28.9578H32.3506ZM42.6255 26.8261H39.731L39.2106 28.9578H36.7652L39.788 19.0765H42.6255L45.6484 28.9578H43.146L42.6255 26.8261ZM40.1017 25.1293H42.2405L41.1711 20.759L40.1017 25.1293ZM51.9024 20.8659V28.9578H49.564V20.8659H46.7906V19.0765H54.7898L54.5474 20.8659H51.9024ZM63.5034 19.0765V20.7875H61.4644V27.2396H63.5034V28.9578H57.087V27.2396H59.126V20.7875H57.087V19.0765H63.5034ZM73.7998 24.01C73.7998 25.0556 73.65 25.9682 73.3506 26.7477C73.0512 27.5224 72.6068 28.126 72.0174 28.5585C71.4328 28.9863 70.708 29.2002 69.843 29.2002C68.9827 29.2002 68.2579 28.991 67.6685 28.5728C67.0792 28.1498 66.6348 27.5509 66.3353 26.7762C66.0359 26.0015 65.8862 25.0794 65.8862 24.01C65.8862 22.9643 66.0359 22.0542 66.3353 21.2794C66.6348 20.5047 67.0792 19.9035 67.6685 19.4757C68.2579 19.0432 68.9827 18.8269 69.843 18.8269C70.708 18.8269 71.4328 19.0361 72.0174 19.4543C72.6068 19.8726 73.0512 20.4691 73.3506 21.2438C73.65 22.0185 73.7998 22.9406 73.7998 24.01ZM71.4043 24.01C71.4043 22.7932 71.2831 21.9092 71.0407 21.3579C70.7983 20.8065 70.3991 20.5309 69.843 20.5309C69.2869 20.5309 68.8876 20.8089 68.6452 21.365C68.4028 21.9163 68.2816 22.798 68.2816 24.01C68.2816 25.2267 68.4052 26.1108 68.6524 26.6621C68.8995 27.2134 69.2964 27.4891 69.843 27.4891C70.4133 27.4891 70.8149 27.2111 71.0478 26.655C71.2855 26.0941 71.4043 25.2125 71.4043 24.01ZM80.0894 28.9578L77.4872 21.0085C77.5205 21.2224 77.5561 21.4814 77.5941 21.7856C77.6369 22.0851 77.6773 22.4201 77.7153 22.7909C77.7534 23.1568 77.7843 23.5466 77.808 23.9601C77.8318 24.3736 77.8437 24.7966 77.8437 25.2291V28.9578H75.8546V19.0765H78.7705L81.2943 26.9829C81.242 26.6835 81.1873 26.327 81.1303 25.9135C81.078 25.4953 81.0329 25.0295 80.9948 24.5162C80.9568 24.0029 80.9378 23.4515 80.9378 22.8622V19.0765H82.9269V28.9578H80.0894ZM92.7598 26.0704C92.7598 26.6835 92.5982 27.2253 92.275 27.6959C91.9566 28.1664 91.4979 28.5348 90.8991 28.8009C90.3002 29.0671 89.5802 29.2002 88.7389 29.2002C87.8073 29.2002 87.0255 29.0647 86.3933 28.7938C85.7659 28.5181 85.2455 28.1783 84.832 27.7743L86.0155 26.4625C86.3814 26.7809 86.7854 27.0281 87.2275 27.2039C87.6695 27.375 88.1543 27.4606 88.6819 27.4606C89.0098 27.4606 89.2974 27.4131 89.5445 27.318C89.7917 27.223 89.9841 27.0851 90.122 26.9045C90.2598 26.7239 90.3287 26.5053 90.3287 26.2486C90.3287 26.0062 90.2741 25.8018 90.1648 25.6355C90.0554 25.4691 89.8701 25.3194 89.6087 25.1863C89.352 25.0533 88.9932 24.9178 88.5321 24.78C87.7622 24.5423 87.1419 24.2809 86.6714 23.9957C86.2056 23.7106 85.8658 23.3802 85.6519 23.0047C85.4427 22.6293 85.3382 22.192 85.3382 21.6929C85.3382 21.0893 85.5045 20.5736 85.8372 20.1459C86.1747 19.7181 86.6262 19.3925 87.1918 19.1692C87.7574 18.941 88.38 18.8269 89.0597 18.8269C89.8249 18.8269 90.4998 18.9386 91.0844 19.162C91.6691 19.3807 92.1752 19.6943 92.603 20.1031L91.4979 21.3721C91.1652 21.0917 90.8064 20.885 90.4214 20.7519C90.0364 20.614 89.6443 20.5451 89.2451 20.5451C88.9504 20.5451 88.6914 20.5831 88.468 20.6592C88.2446 20.7305 88.0711 20.8374 87.9475 20.98C87.824 21.1226 87.7622 21.3008 87.7622 21.5147C87.7622 21.7238 87.8216 21.8997 87.9404 22.0423C88.0592 22.1849 88.266 22.3203 88.5607 22.4487C88.8553 22.5722 89.2641 22.7172 89.7869 22.8835C90.4095 23.0737 90.9419 23.3018 91.3839 23.568C91.8307 23.8294 92.1705 24.1597 92.4034 24.5589C92.641 24.9582 92.7598 25.462 92.7598 26.0704ZM28.7003 47.9578V38.0765H31.0388V46.1113H35.3235L35.0811 47.9578H28.7003ZM40.5865 39.7447V42.1188H44.0086V43.7586H40.5865V46.2824H44.7144V47.9578H38.2481V38.0765H44.7073L44.472 39.7447H40.5865ZM52.1733 45.8261H49.2788L48.7583 47.9578H46.313L49.3358 38.0765H52.1733L55.1961 47.9578H52.6937L52.1733 45.8261ZM49.6495 44.1293H51.7883L50.7189 39.759L49.6495 44.1293ZM60.6588 48.2002C59.7225 48.2002 58.9335 48.0029 58.2918 47.6084C57.6502 47.2092 57.163 46.6246 56.8303 45.8546C56.5024 45.0799 56.3384 44.1269 56.3384 42.9957C56.3384 42.1545 56.4548 41.413 56.6877 40.7714C56.9254 40.125 57.2533 39.5855 57.6716 39.153C58.0898 38.7157 58.577 38.3854 59.1331 38.162C59.6892 37.9386 60.2881 37.8269 60.9297 37.8269C61.6522 37.8269 62.2605 37.9386 62.7548 38.162C63.2491 38.3854 63.6888 38.6801 64.0738 39.0461L62.8475 40.3151C62.5481 40.0489 62.2605 39.8517 61.9849 39.7234C61.7092 39.595 61.3955 39.5309 61.0438 39.5309C60.7111 39.5309 60.4045 39.5974 60.1241 39.7305C59.8484 39.8588 59.606 40.0632 59.3969 40.3436C59.1925 40.6193 59.0333 40.9781 58.9192 41.4201C58.8052 41.8574 58.7481 42.3874 58.7481 43.01C58.7481 43.8703 58.817 44.5547 58.9549 45.0632C59.0975 45.5718 59.3113 45.9378 59.5965 46.1612C59.8817 46.3798 60.2429 46.4891 60.6802 46.4891C60.9131 46.4891 61.1317 46.463 61.3361 46.4107C61.5405 46.3537 61.7306 46.28 61.9064 46.1897V43.9297H60.6659L60.4378 42.2899H64.1165V47.2021C63.6222 47.5062 63.0899 47.7486 62.5196 47.9292C61.954 48.1099 61.3337 48.2002 60.6588 48.2002ZM73.5217 38.0765V44.6497C73.5217 45.3247 73.3839 45.9306 73.1082 46.4677C72.8373 47.0001 72.4285 47.4231 71.882 47.7368C71.3401 48.0457 70.6605 48.2002 69.843 48.2002C69.0207 48.2002 68.3363 48.0504 67.7897 47.751C67.2479 47.4516 66.8415 47.0357 66.5706 46.5034C66.2997 45.971 66.1642 45.3532 66.1642 44.6497V38.0765H68.5098V43.78C68.5098 44.6688 68.5906 45.3389 68.7522 45.7904C68.9138 46.2372 69.2774 46.4606 69.843 46.4606C70.4086 46.4606 70.7722 46.2372 70.9338 45.7904C71.0954 45.3389 71.1762 44.6688 71.1762 43.78V38.0765H73.5217ZM78.7776 39.7447V42.1188H82.1997V43.7586H78.7776V46.2824H82.9055V47.9578H76.4392V38.0765H82.8984L82.6631 39.7447H78.7776Z" fill="#2D2626"/>
</g>
<defs>
<clipPath id="clip0_26_2">
<rect width="114" height="48" fill="white"/>
</clipPath>
</defs>
</svg>
